<svg width="345.000000" height="44.000000" viewBox="0 0 345 44" fill="none" xmlns="http://www.w3.org/2000/svg" xmlns:xlink="http://www.w3.org/1999/xlink">
	<desc>
			Created with Pixso.
	</desc>
	<defs>
		<clipPath id="clip10_211">
			<rect width="345.000000" height="44.000000" fill="white" fill-opacity="0"/>
		</clipPath>
	</defs>
	<rect width="345.000000" height="44.000000" fill="#FFFFFF" fill-opacity="0"/>
	<g clip-path="url(#clip10_211)">
		<path d="M57.67 35.12L50 35.12L58.64 8.94L68.35 8.94L77 35.12L69.32 35.12L63.6 16.15L63.39 16.15L57.67 35.12ZM56.23 24.79L70.65 24.79L70.65 30.11L56.23 30.11L56.23 24.79ZM87.48 35.48C85.38 35.48 83.58 35.08 82.06 34.28C80.55 33.47 79.39 32.31 78.57 30.8C77.76 29.28 77.36 27.47 77.36 25.35C77.36 23.32 77.77 21.55 78.58 20.03C79.4 18.52 80.56 17.34 82.05 16.49C83.54 15.65 85.3 15.23 87.33 15.23C88.81 15.23 90.15 15.46 91.35 15.92C92.56 16.38 93.58 17.05 94.44 17.93C95.29 18.79 95.94 19.85 96.4 21.1C96.86 22.34 97.09 23.74 97.09 25.3L97.09 26.94L79.56 26.94L79.56 23.05L90.6 23.05C90.59 22.49 90.45 22 90.17 21.57C89.89 21.13 89.52 20.8 89.05 20.56C88.59 20.31 88.07 20.19 87.48 20.19C86.91 20.19 86.39 20.31 85.91 20.56C85.43 20.8 85.05 21.13 84.76 21.56C84.48 21.98 84.33 22.48 84.31 23.05L84.31 27.25C84.31 27.88 84.44 28.44 84.71 28.93C84.97 29.43 85.35 29.81 85.84 30.1C86.34 30.38 86.94 30.52 87.63 30.52C88.12 30.52 88.56 30.45 88.96 30.31C89.37 30.18 89.72 29.98 90.01 29.73C90.3 29.46 90.52 29.15 90.65 28.78L97.09 28.78C96.87 30.14 96.35 31.33 95.52 32.33C94.7 33.33 93.6 34.11 92.24 34.66C90.88 35.21 89.3 35.48 87.48 35.48ZM117.92 21.88L111.43 21.88C111.4 21.48 111.25 21.13 111.01 20.84C110.76 20.55 110.44 20.33 110.05 20.18C109.67 20.01 109.24 19.93 108.77 19.93C108.17 19.93 107.65 20.04 107.21 20.26C106.78 20.49 106.56 20.8 106.57 21.21C106.56 21.5 106.69 21.77 106.94 22.02C107.21 22.26 107.71 22.46 108.46 22.59L112.45 23.31C114.46 23.67 115.96 24.29 116.94 25.16C117.93 26.02 118.43 27.18 118.44 28.63C118.43 30.02 118.01 31.24 117.18 32.27C116.36 33.29 115.24 34.08 113.82 34.65C112.41 35.2 110.79 35.48 108.98 35.48C105.98 35.48 103.63 34.86 101.93 33.64C100.24 32.41 99.3 30.79 99.11 28.78L106.11 28.78C106.21 29.4 106.51 29.88 107.03 30.22C107.56 30.56 108.23 30.72 109.03 30.72C109.67 30.72 110.21 30.61 110.62 30.39C111.05 30.17 111.27 29.85 111.28 29.44C111.27 29.07 111.08 28.77 110.71 28.55C110.36 28.33 109.79 28.15 109.03 28.01L105.55 27.4C103.55 27.05 102.05 26.38 101.05 25.4C100.05 24.42 99.56 23.16 99.57 21.62C99.56 20.26 99.91 19.1 100.64 18.16C101.37 17.2 102.42 16.48 103.77 15.98C105.14 15.48 106.75 15.23 108.62 15.23C111.46 15.23 113.69 15.82 115.33 16.99C116.97 18.17 117.84 19.8 117.92 21.88ZM132.85 15.48L132.85 20.6L119.91 20.6L119.91 15.48L132.85 15.48ZM122.42 10.78L129.47 10.78L129.47 28.8C129.47 29.08 129.52 29.31 129.62 29.5C129.71 29.67 129.85 29.81 130.05 29.9C130.25 29.99 130.5 30.03 130.8 30.03C131.02 30.03 131.26 30.01 131.55 29.96C131.84 29.9 132.05 29.86 132.18 29.83L133.21 34.79C132.89 34.88 132.44 35 131.85 35.13C131.27 35.27 130.58 35.36 129.78 35.4C128.16 35.49 126.8 35.32 125.7 34.9C124.6 34.48 123.78 33.81 123.22 32.9C122.67 31.98 122.4 30.84 122.42 29.47L122.42 10.78ZM143.21 24.07L143.21 35.12L136.15 35.12L136.15 8.94L142.95 8.94L142.95 19.22L143.16 19.22C143.6 17.96 144.34 16.99 145.37 16.29C146.4 15.58 147.64 15.23 149.09 15.23C150.48 15.23 151.68 15.54 152.71 16.17C153.74 16.8 154.53 17.67 155.1 18.78C155.67 19.89 155.95 21.16 155.94 22.59L155.94 35.12L148.88 35.12L148.88 24.07C148.89 23.1 148.65 22.34 148.16 21.79C147.67 21.23 146.97 20.96 146.07 20.96C145.5 20.96 145 21.08 144.56 21.34C144.14 21.59 143.8 21.94 143.57 22.41C143.34 22.87 143.22 23.43 143.21 24.07ZM168.83 35.48C166.74 35.48 164.93 35.08 163.41 34.28C161.9 33.47 160.74 32.31 159.92 30.8C159.11 29.28 158.71 27.47 158.71 25.35C158.71 23.32 159.12 21.55 159.94 20.03C160.75 18.52 161.91 17.34 163.4 16.49C164.89 15.65 166.65 15.23 168.68 15.23C170.16 15.23 171.51 15.46 172.71 15.92C173.91 16.38 174.94 17.05 175.79 17.93C176.64 18.79 177.3 19.85 177.76 21.1C178.22 22.34 178.45 23.74 178.45 25.3L178.45 26.94L160.91 26.94L160.91 23.05L171.95 23.05C171.94 22.49 171.8 22 171.52 21.57C171.25 21.13 170.87 20.8 170.41 20.56C169.95 20.31 169.42 20.19 168.83 20.19C168.26 20.19 167.74 20.31 167.26 20.56C166.78 20.8 166.4 21.13 166.11 21.56C165.83 21.98 165.68 22.48 165.66 23.05L165.66 27.25C165.66 27.88 165.8 28.44 166.06 28.93C166.32 29.43 166.7 29.81 167.2 30.1C167.69 30.38 168.29 30.52 168.99 30.52C169.47 30.52 169.92 30.45 170.32 30.31C170.73 30.18 171.07 29.98 171.36 29.73C171.65 29.46 171.87 29.15 172 28.78L178.45 28.78C178.23 30.14 177.7 31.33 176.87 32.33C176.05 33.33 174.95 34.11 173.59 34.66C172.23 35.21 170.65 35.48 168.83 35.48ZM193.04 15.48L193.04 20.6L180.1 20.6L180.1 15.48L193.04 15.48ZM182.61 10.78L189.66 10.78L189.66 28.8C189.66 29.08 189.71 29.31 189.8 29.5C189.9 29.67 190.04 29.81 190.24 29.9C190.43 29.99 190.68 30.03 190.99 30.03C191.2 30.03 191.45 30.01 191.73 29.96C192.02 29.9 192.24 29.86 192.37 29.83L193.39 34.79C193.08 34.88 192.63 35 192.04 35.13C191.46 35.27 190.77 35.36 189.97 35.4C188.35 35.49 186.99 35.32 185.89 34.9C184.79 34.48 183.96 33.81 183.41 32.9C182.86 31.98 182.59 30.84 182.61 29.47L182.61 10.78ZM195.92 35.12L195.92 15.48L202.97 15.48L202.97 35.12L195.92 35.12ZM199.44 13.44C198.49 13.44 197.67 13.12 196.99 12.49C196.31 11.86 195.97 11.1 195.97 10.22C195.97 9.33 196.31 8.57 196.99 7.94C197.67 7.31 198.49 7 199.44 7C200.41 7 201.23 7.31 201.9 7.94C202.58 8.57 202.92 9.33 202.92 10.22C202.92 11.1 202.58 11.86 201.9 12.49C201.23 13.12 200.41 13.44 199.44 13.44ZM216.03 35.48C213.9 35.48 212.07 35.06 210.56 34.21C209.04 33.36 207.88 32.18 207.07 30.66C206.26 29.13 205.85 27.36 205.85 25.35C205.85 23.34 206.26 21.58 207.07 20.06C207.88 18.53 209.04 17.35 210.56 16.51C212.07 15.65 213.9 15.23 216.03 15.23C217.96 15.23 219.62 15.58 221.03 16.28C222.44 16.97 223.54 17.95 224.31 19.22C225.09 20.48 225.48 21.96 225.49 23.67L218.94 23.67C218.85 22.63 218.55 21.85 218.05 21.31C217.55 20.77 216.92 20.5 216.13 20.5C215.52 20.5 214.98 20.67 214.52 21.03C214.06 21.38 213.7 21.91 213.45 22.63C213.19 23.34 213.06 24.23 213.06 25.3C213.06 26.38 213.19 27.27 213.45 27.99C213.7 28.69 214.06 29.23 214.52 29.58C214.98 29.93 215.52 30.11 216.13 30.11C216.65 30.11 217.11 29.99 217.51 29.75C217.91 29.5 218.24 29.15 218.48 28.68C218.74 28.2 218.89 27.62 218.94 26.94L225.49 26.94C225.46 28.67 225.07 30.18 224.3 31.46C223.53 32.74 222.45 33.73 221.04 34.43C219.64 35.13 217.97 35.48 216.03 35.48ZM249.58 17.12C249.52 16.27 249.2 15.6 248.63 15.13C248.06 14.65 247.21 14.41 246.06 14.41C245.32 14.41 244.72 14.5 244.25 14.68C243.79 14.85 243.45 15.08 243.23 15.38C243.01 15.68 242.89 16.02 242.89 16.4C242.87 16.72 242.92 17 243.05 17.26C243.19 17.51 243.4 17.73 243.69 17.94C243.98 18.13 244.35 18.31 244.8 18.48C245.25 18.64 245.79 18.78 246.41 18.91L248.56 19.37C250.01 19.68 251.25 20.08 252.28 20.58C253.31 21.09 254.16 21.68 254.81 22.36C255.47 23.03 255.95 23.79 256.26 24.64C256.57 25.48 256.73 26.4 256.74 27.4C256.73 29.12 256.3 30.58 255.45 31.77C254.6 32.96 253.38 33.87 251.8 34.49C250.22 35.12 248.32 35.43 246.11 35.43C243.83 35.43 241.85 35.09 240.15 34.42C238.46 33.74 237.15 32.71 236.21 31.31C235.28 29.9 234.81 28.11 234.81 25.92L241.56 25.92C241.6 26.72 241.8 27.39 242.16 27.94C242.51 28.48 243.02 28.89 243.67 29.18C244.32 29.46 245.1 29.6 246 29.6C246.76 29.6 247.4 29.5 247.91 29.32C248.42 29.13 248.81 28.87 249.07 28.54C249.34 28.2 249.47 27.82 249.48 27.4C249.47 27 249.34 26.65 249.09 26.35C248.84 26.04 248.43 25.77 247.86 25.53C247.29 25.28 246.52 25.05 245.54 24.84L242.94 24.28C240.62 23.78 238.79 22.94 237.45 21.76C236.12 20.58 235.46 18.96 235.47 16.92C235.46 15.25 235.91 13.8 236.8 12.56C237.7 11.3 238.95 10.33 240.55 9.63C242.15 8.93 243.98 8.58 246.06 8.58C248.17 8.58 250 8.93 251.54 9.64C253.08 10.35 254.27 11.35 255.11 12.63C255.95 13.91 256.38 15.41 256.39 17.12L249.58 17.12ZM259.55 42.48L259.55 15.48L266.55 15.48L266.55 18.91L266.71 18.91C266.96 18.25 267.34 17.64 267.83 17.08C268.33 16.52 268.94 16.07 269.67 15.74C270.41 15.4 271.26 15.23 272.23 15.23C273.53 15.23 274.76 15.57 275.93 16.26C277.1 16.95 278.06 18.04 278.79 19.52C279.53 21.01 279.9 22.93 279.9 25.3C279.9 27.57 279.55 29.45 278.84 30.94C278.14 32.43 277.2 33.54 276.03 34.28C274.86 35.01 273.58 35.38 272.18 35.38C271.26 35.38 270.44 35.23 269.71 34.93C269 34.62 268.38 34.21 267.87 33.69C267.37 33.16 266.98 32.56 266.71 31.9L266.61 31.9L266.61 42.48L259.55 42.48ZM266.45 25.3C266.45 26.26 266.58 27.08 266.82 27.78C267.08 28.47 267.44 29.01 267.9 29.39C268.37 29.77 268.92 29.96 269.57 29.96C270.22 29.96 270.77 29.77 271.22 29.41C271.68 29.03 272.03 28.5 272.27 27.81C272.52 27.11 272.64 26.27 272.64 25.3C272.64 24.33 272.52 23.5 272.27 22.81C272.03 22.11 271.68 21.58 271.22 21.21C270.77 20.84 270.22 20.65 269.57 20.65C268.92 20.65 268.37 20.84 267.9 21.21C267.44 21.58 267.08 22.11 266.82 22.81C266.58 23.5 266.45 24.33 266.45 25.3ZM288.33 35.43C287.08 35.43 285.97 35.22 285.01 34.81C284.05 34.4 283.3 33.76 282.76 32.92C282.21 32.08 281.94 31 281.94 29.7C281.94 28.63 282.12 27.71 282.49 26.95C282.85 26.18 283.37 25.56 284.02 25.07C284.68 24.59 285.44 24.22 286.31 23.96C287.19 23.7 288.13 23.54 289.15 23.46C290.25 23.38 291.13 23.27 291.79 23.15C292.47 23.03 292.95 22.85 293.25 22.63C293.55 22.4 293.7 22.1 293.7 21.72L293.7 21.67C293.7 21.16 293.5 20.77 293.11 20.5C292.72 20.22 292.22 20.09 291.6 20.09C290.93 20.09 290.38 20.24 289.95 20.53C289.54 20.82 289.28 21.27 289.2 21.88L282.7 21.88C282.79 20.68 283.17 19.58 283.84 18.58C284.52 17.56 285.52 16.75 286.82 16.15C288.12 15.53 289.75 15.23 291.7 15.23C293.11 15.23 294.37 15.39 295.49 15.73C296.6 16.05 297.56 16.51 298.34 17.09C299.12 17.67 299.72 18.36 300.13 19.14C300.55 19.92 300.76 20.76 300.76 21.67L300.76 35.12L294.16 35.12L294.16 32.36L294.01 32.36C293.61 33.09 293.14 33.68 292.57 34.14C292.02 34.59 291.38 34.92 290.67 35.12C289.96 35.32 289.18 35.43 288.33 35.43ZM290.63 30.98C291.17 30.98 291.67 30.87 292.14 30.65C292.62 30.42 293 30.1 293.3 29.69C293.6 29.27 293.75 28.76 293.75 28.17L293.75 26.53C293.56 26.61 293.36 26.68 293.15 26.75C292.94 26.81 292.72 26.88 292.48 26.94C292.25 27 292.01 27.05 291.74 27.1C291.49 27.16 291.22 27.2 290.94 27.25C290.39 27.33 289.94 27.47 289.6 27.67C289.25 27.85 289 28.09 288.83 28.37C288.67 28.64 288.59 28.95 288.59 29.29C288.59 29.84 288.78 30.25 289.16 30.54C289.54 30.83 290.03 30.98 290.63 30.98ZM313.59 35.48C311.46 35.48 309.63 35.06 308.12 34.21C306.6 33.36 305.44 32.18 304.63 30.66C303.82 29.13 303.41 27.36 303.41 25.35C303.41 23.34 303.82 21.58 304.63 20.06C305.44 18.53 306.6 17.35 308.12 16.51C309.63 15.65 311.46 15.23 313.59 15.23C315.51 15.23 317.18 15.58 318.59 16.28C320 16.97 321.1 17.95 321.87 19.22C322.65 20.48 323.04 21.96 323.05 23.67L316.5 23.67C316.41 22.63 316.11 21.85 315.61 21.31C315.11 20.77 314.47 20.5 313.69 20.5C313.08 20.5 312.54 20.67 312.08 21.03C311.62 21.38 311.26 21.91 311.01 22.63C310.75 23.34 310.62 24.23 310.62 25.3C310.62 26.38 310.75 27.27 311.01 27.99C311.26 28.69 311.62 29.23 312.08 29.58C312.54 29.93 313.08 30.11 313.69 30.11C314.21 30.11 314.67 29.99 315.07 29.75C315.47 29.5 315.79 29.15 316.04 28.68C316.3 28.2 316.45 27.62 316.5 26.94L323.05 26.94C323.02 28.67 322.63 30.18 321.86 31.46C321.09 32.74 320.01 33.73 318.6 34.43C317.2 35.13 315.53 35.48 313.59 35.48ZM335.37 35.48C333.27 35.48 331.47 35.08 329.95 34.28C328.44 33.47 327.28 32.31 326.46 30.8C325.65 29.28 325.24 27.47 325.24 25.35C325.24 23.32 325.65 21.55 326.47 20.03C327.29 18.52 328.44 17.34 329.94 16.49C331.43 15.65 333.19 15.23 335.22 15.23C336.7 15.23 338.04 15.46 339.24 15.92C340.44 16.38 341.47 17.05 342.32 17.93C343.18 18.79 343.83 19.85 344.29 21.1C344.75 22.34 344.98 23.74 344.98 25.3L344.98 26.94L327.44 26.94L327.44 23.05L338.49 23.05C338.48 22.49 338.33 22 338.05 21.57C337.78 21.13 337.41 20.8 336.94 20.56C336.48 20.31 335.96 20.19 335.37 20.19C334.8 20.19 334.27 20.31 333.8 20.56C333.32 20.8 332.94 21.13 332.65 21.56C332.36 21.98 332.22 22.48 332.2 23.05L332.2 27.25C332.2 27.88 332.33 28.44 332.59 28.93C332.86 29.43 333.24 29.81 333.73 30.1C334.23 30.38 334.82 30.52 335.52 30.52C336.01 30.52 336.45 30.45 336.85 30.31C337.26 30.18 337.61 29.98 337.9 29.73C338.19 29.46 338.4 29.15 338.54 28.78L344.98 28.78C344.76 30.14 344.24 31.33 343.41 32.33C342.58 33.33 341.49 34.11 340.12 34.66C338.77 35.21 337.18 35.48 335.37 35.48Z" fill="#FFFFFF" fill-opacity="1.000000" fill-rule="nonzero"/>
		<path d="M23.81 20.93L23.81 9L34.63 9C35.59 9 36.39 9.32 37.03 9.98C37.68 10.63 38 11.45 38 12.43L38 20.93L23.81 20.93ZM3.36 35C2.4 35 1.6 34.67 0.96 34.01C0.31 33.36 -0.01 32.54 0 31.56L0 12.43C0 11.45 0.32 10.63 0.96 9.98C1.6 9.32 2.4 8.99 3.36 9L21.72 9L21.72 35L3.36 35ZM23.81 35L23.81 23.06L38 23.06L38 31.56C38 32.54 37.67 33.36 37.03 34.01C36.39 34.67 35.59 35 34.63 35L23.81 35Z" fill="#FFFFFF" fill-opacity="1.000000" fill-rule="nonzero"/>
	</g>
</svg>
